# xmcd
#
# Track frame offsets:
#	150
#	15832
#	31958
#	49124
#	61726
#	76744
#	101031
#	122365
#	139309
#	157604
#	177169
#	198224
#	216310
#	232372
#	251156
#
# Disc length: 3613
#
# Revision: 2
# Processed by: cddbd v1.5.1PL0 Copyright (c) Steve Scherf et al.
# Submitted via: audiograbber 1.82.02
# Normalized: r1:DSETVAR2
#
DISCID=be0e1b0f
DTITLE=Various Artist - Bob Harris Presents...Volume 5
DYEAR=2004
DGENRE=AOR
TTITLE0=Superdrag - Lighting The Way
TTITLE1=Thea Gilmore - Lip Reading
TTITLE2=Weed Patch - Let Go Of The Wheel
TTITLE3=Sally Crewe And The Sudden Moves - Friend Of The City
TTITLE4=Farrah - First And Last
TTITLE5=Virginia MacNaughton - Night Into Day
TTITLE6=The Devics - Red Morning
TTITLE7=The Iguanas - 9 Volt Heart
TTITLE8=Eva Cassidy - American Tune
TTITLE9=Mike Silver - Not A Matter Of Pride
TTITLE10=Centro-matic - Argonne Limit Co
TTITLE11=Mary Lee's Corvette - Out From Under It
TTITLE12=Astro Puppees - Over Her Head
TTITLE13=Michael Carpenter - The One For Me
TTITLE14=Dayna Kurtz - Somebody Leave A Light On
EXTD=
EXTT0=
EXTT1=
EXTT2=
EXTT3=
EXTT4=
EXTT5=
EXTT6=
EXTT7=
EXTT8=
EXTT9=
EXTT10=
EXTT11=
EXTT12=
EXTT13=
EXTT14=
PLAYORDER=
